<svg id="Capa_1" data-name="Capa 1" xmlns="http://www.w3.org/2000/svg" viewBox="0 0 173.01 173.01"><title>hand0</title><path d="M165,69.85c-9-.85-63.73-2.82-71.6,0S49.37,102,40.5,108.46s2.58,18.64,13,11.58,27-17.53,34.31-22.28,15.67,3.95,9.32,10.15c-4.7,4.6-32.81,25.1-38.78,25.38s-32.81,0-47.74,0-13.42,18.05,0,18.05c8.95,0,66,3.1,71.6,0s47.75-35.53,52.92-36.69,17.57,0,29.84,0S174,70.7,165,69.85Z"/><path d="M35.64,86.85a24,24,0,0,0,24-24c0-13.26-24-42.56-24-42.56s-24,29.3-24,42.56A24,24,0,0,0,35.64,86.85Z"/></svg>