<svg id="Capa_1" data-name="Capa 1" xmlns="http://www.w3.org/2000/svg" viewBox="0 0 378.3 378.3"><defs><style>.cls-1{fill:none;stroke:#fff;stroke-miterlimit:10;stroke-width:2px;}</style></defs><title>rasoio</title><path class="cls-1" d="M340.53,67.15c-46.45,64.14-131,127.3-247.12,188.79,5.57-12.26,10-21.65,12.94-25.72,10.26-14.17,31.13-54.29,31.13-54.29s11,7.65,12.49,4.12,63.7-151.66,63.7-151.66-29.34-32.74-39.83-8.73L64,271.12c-7.94,4-16,8-24.16,12-9.2,4-4.45,14.12,10,20.5-13.56,31.07-22.58,51.72-22.58,51.72S27,365.64,34.41,363c12.64-15.06,24.38-35.32,34.71-55.57,78-6.83,285.5-175.28,296.12-190.83C376.18,100.63,342.89,51.24,340.53,67.15ZM81.19,289.53a6,6,0,1,1,.28-8.54A6,6,0,0,1,81.19,289.53Z"/><line class="cls-1" x1="64.01" y1="271.12" x2="93.41" y2="255.94"/><path class="cls-1" d="M30.85,314.11s6.34,4.35,20.72,4.1"/></svg>